<svg width="1920" height="1080" viewBox="0 0 1920 1080" fill="none" xmlns="http://www.w3.org/2000/svg">
<path d="M2071 1131C2071 1385.33 277.5 1100.5 2.5 1077.5C84.9998 1451.5 672 1100.5 2.5 1077.5C1796.5 1227.54 1830 394 1918.5 -13.5C2159.02 -13.5 2071 876.673 2071 1131Z" fill="#75BCCC" fill-opacity="0.5"/>
<path d="M1312 1176C1312 1430.33 -183 1135 -458 1112C-375.5 1486 211.5 1135 -458 1112C1336 1262.04 1551.5 444.5 1640 37C1806.5 521.5 1369 1193 1312 1176Z" fill="#75BCCC" fill-opacity="0.5"/>
<path d="M984 1499C984 1753.33 -511 1458 -786 1435C-703.5 1809 -116.5 1458 -786 1435C1008 1585.04 1223.5 767.5 1312 360C1478.5 844.5 1041 1516 984 1499Z" fill="#75BCCC" fill-opacity="0.5"/>
<path d="M1917.5 1078.5C1917.5 1318.47 528.08 1321 279 1321C29.9196 1321 -172 1126.47 -172 886.5C-172 646.532 -247.58 0 1.49998 0C287 1185.5 1464.5 1059 1917.5 1078.5Z" fill="#4954BE" fill-opacity="0.5"/>
<path d="M2306.28 1110.5C2306.28 1350.47 916.861 1353 667.781 1353C418.7 1353 695 2064.47 695 1824.5C695 1584.53 89.2193 454.5 294.5 49C580 1234.5 1853.28 1091 2306.28 1110.5Z" fill="#4954BE" fill-opacity="0.5"/>
<path d="M2604.24 1418.5C2604.24 1658.47 1214.82 1661 965.739 1661C716.659 1661 992.959 2372.47 992.959 2132.5C992.959 1892.53 387.178 762.5 592.459 357C877.959 1542.5 2151.24 1399 2604.24 1418.5Z" fill="#4954BE" fill-opacity="0.5"/>
</svg>
