<svg width="0" height="0" class="hidden">
    <symbol xmlns="http://www.w3.org/2000/svg" viewBox="0 0 22 22" id="comment">
        <path d="M9.875 11a1.125 1.125 0 102.25 0 1.125 1.125 0 00-2.25 0zm4.688 0a1.125 1.125 0 102.25 0 1.125 1.125 0 00-2.25 0zm-9.375 0a1.125 1.125 0 102.25 0 1.125 1.125 0 00-2.25 0zm15.497-4.069A10.503 10.503 0 0011 .5h-.047A10.475 10.475 0 00.5 11.05a10.533 10.533 0 001.125 4.684v3.563a1.078 1.078 0 001.078 1.078h3.565a10.533 10.533 0 004.685 1.125h.05c1.403 0 2.765-.272 4.047-.804a10.417 10.417 0 003.347-2.231 10.475 10.475 0 003.103-7.418 10.46 10.46 0 00-.815-4.116zm-3.542 10.266A8.673 8.673 0 0111 19.719h-.04a8.75 8.75 0 01-4.057-1.02l-.197-.105h-3.3v-3.3l-.105-.197a8.75 8.75 0 01-1.02-4.057 8.665 8.665 0 012.522-6.183 8.653 8.653 0 016.16-2.576h.04c1.171 0 2.308.228 3.38.678a8.664 8.664 0 012.788 1.875 8.683 8.683 0 012.552 6.206 8.685 8.685 0 01-2.58 6.157z"></path>
    </symbol>
    <symbol xmlns="http://www.w3.org/2000/svg" viewBox="0 0 20 20" id="like">
        <path d="M18.763 10.51c.394-.52.612-1.158.612-1.822 0-1.052-.588-2.048-1.535-2.604a1.586 1.586 0 00-.804-.218h-5.62l.14-2.88a2.509 2.509 0 00-.691-1.861A2.499 2.499 0 009.039.342c-1.219 0-2.297.82-2.62 1.995L4.405 9.626h-3.03a.75.75 0 00-.75.75v8.531c0 .415.335.75.75.75h14.093c.216 0 .427-.042.621-.127a3.014 3.014 0 001.709-3.642 3.016 3.016 0 00.485-2.688c.394-.52.611-1.158.611-1.821a3.2 3.2 0 00-.13-.87zm-16.45 7.46v-6.657H4.21v6.657H2.312zm14.915-8.274l-.513.445.326.596a1.338 1.338 0 01-.298 1.648l-.513.445.325.595a1.338 1.338 0 01-.298 1.648l-.512.445.325.595a1.332 1.332 0 01-.626 1.854H5.711v-6.729L8.043 2.79a1.034 1.034 0 01.989-.757.833.833 0 01.837.872l-.225 4.65h7.368c.418.255.675.687.675 1.134 0 .387-.168.753-.459 1.008z"></path>
    </symbol>
    <symbol xmlns="http://www.w3.org/2000/svg" viewBox="0 0 20 20" id="save">
        <path d="M18.937 4.874l-3.811-3.81A1.494 1.494 0 0014.5.687V.625H1.375a.75.75 0 00-.75.75v17.25c0 .415.335.75.75.75h17.25a.75.75 0 00.75-.75V5.934c0-.399-.157-.779-.438-1.06zM7 2.313h6V4.75H7V2.312zm10.688 15.374H2.313V2.313H5.5V5.5c0 .415.335.75.75.75h7.5a.75.75 0 00.75-.75V2.823l3.188 3.188v11.677zM10 8.36a3.376 3.376 0 10.002 6.752A3.376 3.376 0 0010 8.36zm0 5.25a1.875 1.875 0 11-.001-3.749A1.875 1.875 0 0110 13.61z"></path>
    </symbol>
    <symbol xmlns="http://www.w3.org/2000/svg" viewBox="0 0 18 20" id="share">
        <path d="M14.625 13.563a2.8 2.8 0 00-1.767.625l-4.856-3.513a3.766 3.766 0 000-1.35l4.856-3.513a2.8 2.8 0 001.767.625 2.815 2.815 0 002.813-2.812A2.815 2.815 0 0014.624.812a2.815 2.815 0 00-2.702 3.593L7.31 7.745A3.749 3.749 0 00.562 10a3.749 3.749 0 006.748 2.255l4.613 3.34a2.815 2.815 0 002.702 3.593 2.815 2.815 0 002.813-2.813 2.815 2.815 0 00-2.813-2.813zm0-11.157a1.22 1.22 0 11-.001 2.439 1.22 1.22 0 01.001-2.439zM4.312 12.062A2.066 2.066 0 012.25 10c0-1.137.926-2.063 2.063-2.063 1.136 0 2.062.926 2.062 2.063a2.066 2.066 0 01-2.063 2.063zm10.313 5.532a1.22 1.22 0 11.001-2.439 1.22 1.22 0 01-.001 2.439z"></path>
    </symbol>
    <symbol xmlns="http://www.w3.org/2000/svg" viewBox="0 0 22 22" id="exit">
        <path d="M15.537 1.927a.188.188 0 00-.272.17V3.6c0 .129.068.248.176.319a8.255 8.255 0 011.458 1.167 8.319 8.319 0 012.442 5.906 8.33 8.33 0 01-2.442 5.906 8.274 8.274 0 01-2.653 1.79 8.265 8.265 0 01-3.246.657 8.27 8.27 0 01-3.247-.656A8.274 8.274 0 015.1 16.9a8.32 8.32 0 01-2.442-5.906A8.329 8.329 0 015.1 5.086 8.473 8.473 0 016.558 3.92a.374.374 0 00.176-.32V2.095c0-.14-.148-.23-.272-.169a10.14 10.14 0 00-5.587 8.941C.809 16.463 5.386 21.113 10.98 21.125c5.601.012 10.144-4.53 10.144-10.134 0-3.966-2.274-7.4-5.588-9.064zM10.25 12.125h1.5a.188.188 0 00.187-.188V1.063a.188.188 0 00-.187-.188h-1.5a.188.188 0 00-.188.188v10.874c0 .104.085.188.188.188z"></path>
    </symbol>
    <symbol xmlns="http://www.w3.org/2000/svg" viewBox="0 0 11 14" id="igni">
        <path d="M10.533 6.331a5.429 5.429 0 00-1.295-1.8l-.455-.417a.127.127 0 00-.203.052l-.203.583c-.127.365-.36.739-.69 1.106a.098.098 0 01-.064.031.086.086 0 01-.067-.023.092.092 0 01-.031-.075c.058-.94-.223-2.002-.84-3.157-.508-.959-1.216-1.707-2.1-2.23L3.938.023a.125.125 0 00-.187.114l.034.75c.023.513-.036.966-.177 1.342-.171.461-.418.89-.734 1.274a4.62 4.62 0 01-.742.72A5.51 5.51 0 00.566 6.121a5.434 5.434 0 00-.133 4.535 5.49 5.49 0 002.928 2.9 5.5 5.5 0 002.139.429c.742 0 1.46-.144 2.14-.427a5.445 5.445 0 001.747-1.167A5.409 5.409 0 0011 8.533c0-.762-.156-1.503-.467-2.202zM8.64 11.633a4.43 4.43 0 01-3.14 1.288 4.43 4.43 0 01-3.14-1.288 4.34 4.34 0 01-1.297-3.1c0-.68.153-1.331.454-1.937a4.42 4.42 0 011.263-1.53c.339-.26.646-.557.915-.888.39-.476.697-1.007.91-1.578a3.75 3.75 0 00.189-.726c.376.347.692.765.956 1.256.522.978.763 1.848.716 2.589a1.156 1.156 0 002.012.847 5.09 5.09 0 00.538-.713c.218.28.401.585.546.913a4.33 4.33 0 01.376 1.767c0 1.17-.461 2.272-1.297 3.1z"></path>
    </symbol>
    <symbol xmlns="http://www.w3.org/2000/svg" viewBox="0 0 1000 1000" id="menu">
        <path d="M455.3 11.96C296.42 26.71 153.65 118.7 74.69 257.07-25.92 433-7.91 653.01 119.92 809.97c17.63 21.85 52.51 56.34 74.17 73.59 66.69 53.27 147.95 88.73 234.38 102.14 32.39 4.98 101.38 5.94 131.28 1.92 89.88-12.46 166.35-43.5 237.07-96.39 24.15-18.02 76.27-70.15 94.29-94.29 52.89-70.72 83.94-147.18 96.4-237.06 4.02-29.9 3.07-98.89-1.92-131.28-8.43-53.47-22.42-98.12-46.57-146.42-47.72-96.4-123.8-172.48-220.39-220.39C636.02 20.77 545.56 3.53 455.3 11.96zm169.6 228.82l10.54 10.54-184.93 184.94L265.57 621.2l-10.92-10.93-11.12-11.11L427.89 414.8C529.46 313.22 612.83 230.24 613.4 230.24c.58 0 5.75 4.79 11.5 10.54zm-146.03 5.37l9.97 9.97-114.03 114.02-114.03 114.03-10.92-11.11-11.11-10.92 113.07-113.07c62.08-62.29 114.02-113.08 114.98-113.08 1.15 0 6.51 4.6 12.07 10.16zm274.43 6.13l10.54 10.54-252.58 252.59-252.4 252.4-10.92-11.12-11.11-10.92 252-252.02c138.56-138.56 252.4-252.01 252.97-252.01.58 0 5.76 4.79 11.5 10.54zM580.82 585.74L403.55 763.02l-10.54-10.54-10.54-10.54 177.27-177.28 177.27-177.27 10.54 10.54 10.54 10.54-177.27 177.27zm69 72.83L536.75 771.64l-10.92-11.12-11.12-10.92 113.07-113.07 113.07-113.07 10.92 10.92 11.12 11.12-113.07 113.07z"></path>
    </symbol>
    <symbol xmlns="http://www.w3.org/2000/svg" viewBox="0 0 16 16" id="video">
        <path d="M14.25 4.723l-2 1.152V3.5a1 1 0 00-1-1H2a1 1 0 00-1 1v9a1 1 0 001 1h9.25a1 1 0 001-1v-2.375l2 1.152a.5.5 0 00.75-.432V5.156a.5.5 0 00-.75-.433zm-3.125 7.652h-9v-8.75h9v8.75zm2.75-2.61l-1.625-.934v-1.66l1.625-.937v3.532zM3.25 5.626H5a.125.125 0 00.125-.125v-.75A.125.125 0 005 4.625H3.25a.125.125 0 00-.125.125v.75c0 .069.056.125.125.125z"></path>
    </symbol>
    <symbol xmlns="http://www.w3.org/2000/svg" viewBox="0 0 16 16" id="photo">
        <path d="M14.5 2.5h-13A.5.5 0 001 3v10a.5.5 0 00.5.5h13a.5.5 0 00.5-.5V3a.5.5 0 00-.5-.5zm-.625 9.875H2.125v-.623l2.164-2.568 2.345 2.782 3.649-4.325 3.592 4.259v.475zm0-2.028L10.378 6.2a.124.124 0 00-.19 0l-3.554 4.212-2.25-2.667a.124.124 0 00-.19 0l-2.069 2.453V3.625h11.75v6.722zM4.75 7.125a1.375 1.375 0 100-2.75 1.375 1.375 0 000 2.75zm0-1.813a.437.437 0 11.001.874.437.437 0 01-.001-.873z"></path>
    </symbol>
</svg>
