<svg width="11" height="14" viewBox="0 0 11 14" fill="none" xmlns="http://www.w3.org/2000/svg">
<path d="M10.5328 6.33147C10.2295 5.64875 9.78851 5.03597 9.2375 4.53147L8.78281 4.11428C8.76737 4.10051 8.74879 4.09073 8.72869 4.08581C8.7086 4.08089 8.6876 4.08099 8.66754 4.08608C8.64749 4.09117 8.62899 4.1011 8.61367 4.11501C8.59835 4.12892 8.58668 4.14638 8.57969 4.16585L8.37656 4.74866C8.25 5.11428 8.01719 5.48772 7.6875 5.85491C7.66563 5.87835 7.64063 5.8846 7.62344 5.88616C7.60625 5.88772 7.57969 5.8846 7.55625 5.86272C7.53437 5.84397 7.52344 5.81585 7.525 5.78772C7.58281 4.8471 7.30156 3.78616 6.68594 2.63147C6.17656 1.6721 5.46875 0.92366 4.58437 0.401785L3.93906 0.0220976C3.85469 -0.0279024 3.74688 0.0377225 3.75156 0.13616L3.78594 0.88616C3.80937 1.39866 3.75 1.85179 3.60938 2.22835C3.4375 2.68929 3.19062 3.11741 2.875 3.50179C2.65535 3.76891 2.40639 4.01053 2.13281 4.2221C1.47391 4.72861 0.938146 5.37762 0.565625 6.12054C0.194022 6.86993 0.000453376 7.695 0 8.53147C0 9.26897 0.145312 9.98304 0.432812 10.6565C0.710416 11.3049 1.11103 11.8933 1.6125 12.3893C2.11875 12.8893 2.70625 13.283 3.36094 13.5565C4.03906 13.8408 4.75781 13.9846 5.5 13.9846C6.24219 13.9846 6.96094 13.8408 7.63906 13.558C8.29214 13.2862 8.88601 12.8898 9.3875 12.3908C9.89375 11.8908 10.2906 11.3065 10.5672 10.658C10.8543 9.98644 11.0015 9.26341 11 8.53303C11 7.77053 10.8438 7.02991 10.5328 6.33147ZM8.64062 11.633C7.80156 12.4643 6.6875 12.9205 5.5 12.9205C4.3125 12.9205 3.19844 12.4643 2.35938 11.633C1.52344 10.8033 1.0625 9.70335 1.0625 8.53303C1.0625 7.85335 1.21563 7.20179 1.51719 6.59554C1.81094 6.00335 2.24844 5.47366 2.77969 5.06585C3.1185 4.80678 3.4258 4.50891 3.69531 4.17835C4.08594 3.70179 4.39219 3.17053 4.60469 2.60022C4.69185 2.36497 4.75519 2.12156 4.79375 1.87366C5.17031 2.22054 5.48594 2.63928 5.75 3.12991C6.27187 4.10803 6.5125 4.97835 6.46562 5.71897C6.45443 5.8934 6.48291 6.06811 6.54895 6.22994C6.61498 6.39178 6.71684 6.53654 6.84688 6.65335C6.95956 6.75514 7.09135 6.83352 7.23458 6.88395C7.37782 6.93438 7.52965 6.95584 7.68125 6.9471C7.98906 6.93147 8.27187 6.79554 8.47812 6.56585C8.68594 6.33304 8.86563 6.09554 9.01562 5.85335C9.23438 6.13304 9.41719 6.43772 9.5625 6.76585C9.81094 7.32522 9.9375 7.92053 9.9375 8.53303C9.9375 9.70335 9.47656 10.8049 8.64062 11.633Z" fill="white"/>
</svg>
